<svg xmlns="http://www.w3.org/2000/svg" viewBox="0 0 36 38"><defs><style>.cls-1{fill:#93bdae;}.cls-2{fill:#205254;}.cls-3{fill:#fff;}</style></defs><g id="Layer_2" data-name="Layer 2"><g id="Layer_1-2" data-name="Layer 1"><path class="cls-1" d="M29.8,34H24.53A5.67,5.67,0,0,0,27,29.32V9.55A1.54,1.54,0,0,0,25.45,8H9.55A1.54,1.54,0,0,0,8,9.55V29.32A5.67,5.67,0,0,0,10.47,34H6.2A1.14,1.14,0,0,0,5,35.06,3.15,3.15,0,0,0,8.32,38H27.68A3.15,3.15,0,0,0,31,35.06,1.14,1.14,0,0,0,29.8,34Z"/><path class="cls-1" d="M31.94,14H28v2.4h2.6a2.23,2.23,0,0,1,2.4,2v6.2a2.23,2.23,0,0,1-2.4,2H28V29h3.94A3.06,3.06,0,0,0,35,25.94V17.06A3.06,3.06,0,0,0,31.94,14Z"/><path class="cls-2" d="M11.5,0a.46.46,0,0,0-.5.42V4.58a.51.51,0,0,0,1,0V.42A.46.46,0,0,0,11.5,0Z"/><path class="cls-2" d="M15.5,0c-.28,0-.5.15-.5.33V5.67c0,.18.22.33.5.33s.5-.15.5-.33V.33C16,.15,15.78,0,15.5,0Z"/><path class="cls-2" d="M19.5,0a.5.5,0,0,0-.5.5v4a.5.5,0,0,0,1,0V.5A.5.5,0,0,0,19.5,0Z"/><path class="cls-2" d="M31.94,12H28V9.55A1.54,1.54,0,0,0,26.45,8H4.55A1.54,1.54,0,0,0,3,9.55V29.32A5.67,5.67,0,0,0,5.47,34H1.06A1.07,1.07,0,0,0,0,35.06,2.94,2.94,0,0,0,2.94,38H28.06A2.94,2.94,0,0,0,31,35.06,1.07,1.07,0,0,0,29.94,34H25.53A5.67,5.67,0,0,0,28,29.32V29h3.94A4.06,4.06,0,0,0,36,24.94V16.06A4.06,4.06,0,0,0,31.94,12Zm-2,23a.06.06,0,0,1,.06.06A1.94,1.94,0,0,1,28.06,37H2.94A1.94,1.94,0,0,1,1,35.06.06.06,0,0,1,1.06,35H29.94ZM27,12v2H21.5a.5.5,0,0,0,0,1H27v2H18.5a.5.5,0,0,0,0,1H27V29.32A4.69,4.69,0,0,1,22.32,34H8.68A4.69,4.69,0,0,1,4,29.32V9.55A.55.55,0,0,1,4.55,9h21.9a.55.55,0,0,1,.55.55Zm1,4.4h2.6a1.12,1.12,0,0,1,1.2,1v6.2a1.12,1.12,0,0,1-1.2,1H28Zm7,8.54A3.06,3.06,0,0,1,31.94,28H28V25.6h2.6a2.23,2.23,0,0,0,2.4-2V17.4a2.23,2.23,0,0,0-2.4-2H28V13h3.94A3.06,3.06,0,0,1,35,16.06Z"/><circle class="cls-3" cx="17.75" cy="14.25" r="0.75"/><circle class="cls-3" cx="15.25" cy="17.75" r="0.75"/></g></g></svg>